<?xml version="1.0" encoding="UTF-8" standalone="no"?>
<svg
   version="1.0"
   width="359pt"
   height="94pt"
   viewBox="0 0 359 94"
   preserveAspectRatio="xMidYMid"
   id="svg4"
   sodipodi:docname="logo.svg"
   xml:space="preserve"
   inkscape:version="1.2.2 (b0a8486541, 2022-12-01)"
   xmlns:inkscape="http://www.inkscape.org/namespaces/inkscape"
   xmlns:sodipodi="http://sodipodi.sourceforge.net/DTD/sodipodi-0.dtd"
   xmlns:xlink="http://www.w3.org/1999/xlink"
   xmlns="http://www.w3.org/2000/svg"
   xmlns:svg="http://www.w3.org/2000/svg"><defs
     id="defs8"><linearGradient
       inkscape:collect="always"
       id="linearGradient1562"><stop
         style="stop-color:#ff8fb1;stop-opacity:1;"
         offset="0"
         id="stop2343" /><stop
         style="stop-color:#5ed3e6;stop-opacity:1;"
         offset="1"
         id="stop1558" /></linearGradient><linearGradient
       inkscape:collect="always"
       xlink:href="#linearGradient1562"
       id="linearGradient6769"
       x1="280.57587"
       y1="217.92111"
       x2="299.10455"
       y2="217.92111"
       gradientUnits="userSpaceOnUse" /><linearGradient
       inkscape:collect="always"
       xlink:href="#linearGradient1562"
       id="linearGradient10530"
       x1="325.24203"
       y1="254.29272"
       x2="361.57568"
       y2="254.29272"
       gradientUnits="userSpaceOnUse" /><linearGradient
       inkscape:collect="always"
       xlink:href="#linearGradient1562"
       id="linearGradient20568"
       gradientUnits="userSpaceOnUse"
       x1="280.57587"
       y1="217.92111"
       x2="299.10455"
       y2="217.92111" /><linearGradient
       inkscape:collect="always"
       xlink:href="#linearGradient1562"
       id="linearGradient20570"
       gradientUnits="userSpaceOnUse"
       x1="325.24203"
       y1="254.29272"
       x2="361.57568"
       y2="254.29272" /></defs><sodipodi:namedview
     id="namedview6"
     pagecolor="#ffffff"
     bordercolor="#000000"
     borderopacity="0"
     inkscape:showpageshadow="0"
     inkscape:pageopacity="0"
     inkscape:pagecheckerboard="1"
     inkscape:deskcolor="#e8e8e8"
     inkscape:document-units="pt"
     showgrid="false"
     showguides="false"
     inkscape:zoom="1.416"
     inkscape:cx="246.82203"
     inkscape:cy="62.853107"
     inkscape:window-width="1096"
     inkscape:window-height="835"
     inkscape:window-x="268"
     inkscape:window-y="0"
     inkscape:window-maximized="0"
     inkscape:current-layer="svg4" /><g
     transform="matrix(0.1,0,0,-0.1,-73.007128,294.15395)"
     fill="#000000"
     stroke="none"
     id="g2" /><g
     aria-label="Gaviko"
     id="g20556"
     style="font-weight:bold;font-size:112.5px;font-family:Inter;-inkscape-font-specification:'Inter Bold';opacity:1;fill:#030000;stroke:#6e6e6e;stroke-width:3.5;stroke-linecap:round;stroke-linejoin:round;stroke-miterlimit:9.2;stroke-dasharray:none;stroke-opacity:1;paint-order:markers fill stroke"
     inkscape:label="textobajo"
     transform="translate(-70.499998,-203.16152)"><path
       d="m 113.70366,292.24243 q -11.59058,0 -20.37964,-5.27344 -8.73413,-5.27343 -13.677978,-14.77661 -4.888916,-9.50317 -4.888916,-22.13745 0,-13.07373 5.053711,-22.5769 5.053711,-9.50318 13.842773,-14.61182 8.78906,-5.10864 19.77539,-5.10864 7.03125,0 13.23853,2.0874 6.20727,2.03247 10.98632,5.87769 4.83399,3.79028 7.91016,9.06372 3.07617,5.27343 3.84522,11.70044 h -17.13868 q -0.71411,-3.13111 -2.25219,-5.65796 -1.53809,-2.58179 -3.95508,-4.39453 -2.36206,-1.81275 -5.43823,-2.74659 -3.02124,-0.98877 -6.70166,-0.98877 -6.86646,0 -11.86524,3.35083 -4.943846,3.2959 -7.635497,9.44825 -2.636719,6.09741 -2.636719,14.55688 0,8.40454 2.691651,14.50195 2.69165,6.09742 7.690425,9.44825 4.99878,3.2959 11.9751,3.2959 5.71289,0 10.05249,-2.14234 4.3396,-2.19726 6.75659,-6.09741 2.47193,-3.95508 2.47193,-9.11865 l 4.01001,0.32959 h -21.8628 v -12.85401 h 34.38721 v 10.43701 q 0,10.16236 -4.66919,17.90772 -4.61426,7.74536 -12.79907,12.13989 -8.18481,4.3396 -18.78662,4.3396 z"
       style="fill:#ffffff;stroke:#6e6e6e;stroke-width:3.5;stroke-linecap:round;stroke-dasharray:none;stroke-opacity:1;paint-order:markers fill stroke"
       id="path20538" /><path
       d="m 177.53423,291.91284 q -5.76783,0 -10.27222,-1.92261 -4.5044,-1.9226 -7.08618,-5.76782 -2.58179,-3.90014 -2.58179,-9.66797 0,-4.88891 1.81274,-8.12988 1.81275,-3.2959 4.94385,-5.27344 3.18604,-2.03247 7.25098,-3.07617 4.11987,-1.0437 8.62427,-1.42822 5.32836,-0.54932 8.45947,-1.0437 3.1311,-0.49439 4.50439,-1.42823 1.37329,-0.93383 1.37329,-2.80151 v -0.38452 q 0,-2.14233 -1.15356,-3.73535 -1.15356,-1.64795 -3.2959,-2.58179 -2.0874,-0.93384 -5.05371,-0.93384 -2.96631,0 -5.27344,0.93384 -2.25219,0.93384 -3.57055,2.63672 -1.31836,1.70288 -1.53809,3.95508 h -15.21606 q 0.38452,-5.98755 3.51562,-10.38208 3.18604,-4.39453 8.89893,-6.75659 5.71289,-2.417 13.67797,-2.417 5.93262,0 10.60181,1.37329 4.66919,1.31836 7.85523,3.90015 3.24096,2.58179 4.88891,6.26221 1.64795,3.68042 1.64795,8.34961 v 39.33105 h -15.82031 v -8.18481 h -0.21973 q -1.53808,2.85644 -3.79028,4.88891 -2.2522,2.03247 -5.49316,3.18604 -3.24097,1.09863 -7.69043,1.09863 z m 4.50439,-11.26098 q 3.90015,0 6.70166,-1.42823 2.85645,-1.42822 4.39453,-3.90014 1.53809,-2.47193 1.53809,-5.60303 v -5.82275 q -0.71411,0.38452 -1.86768,0.76904 -1.15356,0.32959 -2.69165,0.65918 -1.53808,0.27466 -3.35083,0.60425 -1.81274,0.32959 -3.73535,0.60424 -2.80151,0.43946 -5.05371,1.37329 -2.2522,0.87891 -3.57056,2.417 -1.31836,1.48315 -1.31836,3.79028 0,2.03247 1.09864,3.51563 1.09863,1.48315 3.1311,2.25219 2.03247,0.76905 4.72412,0.76905 z"
       style="fill:#ffffff;stroke:#6e6e6e;stroke-width:3.5;stroke-linecap:round;stroke-dasharray:none;stroke-opacity:1;paint-order:markers fill stroke"
       id="path20540" /><path
       d="m 235.94844,290.92407 -21.47827,-58.00781 h 16.97388 l 9.5581,28.67432 q 1.70288,5.10864 3.18604,10.21728 1.48315,5.10864 2.96631,10.27222 h -3.84522 q 1.42822,-5.16358 2.85645,-10.27222 1.48315,-5.10864 3.07617,-10.21728 l 9.44824,-28.67432 h 16.80908 l -21.5332,58.00781 z"
       style="fill:#ffffff;stroke:#6e6e6e;stroke-width:3.5;stroke-linecap:round;stroke-dasharray:none;stroke-opacity:1;paint-order:markers fill stroke"
       id="path20542" /><path
       style="fill:#ffffff;fill-opacity:1;stroke:#6e6e6e;stroke-width:3.5;stroke-linecap:round;stroke-dasharray:none;stroke-opacity:1;paint-order:markers fill stroke"
       d="m 281.81636,290.92407 v -58.00781 h 16.20483 v 17.05237 40.95544 z"
       id="path20544"
       sodipodi:nodetypes="cccccc" /><path
       style="opacity:1;fill:#ffffff;fill-opacity:1;stroke:#6e6e6e;stroke-width:3.5;stroke-linecap:round;stroke-dasharray:none;stroke-opacity:1;paint-order:markers fill stroke"
       d="m 347.39607,292.56548 -13.00235,-21.75477 8.66672,-10.72402 20.98052,32.43331 z"
       id="path20546"
       sodipodi:nodetypes="ccccc" /><path
       style="fill:#ffffff;stroke:#6e6e6e;stroke-width:3.5;stroke-linecap:round;stroke-dasharray:none;stroke-opacity:1;paint-order:markers fill stroke"
       d="m 309.44698,290.92407 v -81.84814 h 16.20483 v 81.84814 z"
       id="path20548" /><path
       d="m 395.74458,292.24243 q -8.73413,0 -15.38086,-3.79028 -6.64672,-3.79028 -10.38208,-10.60181 -3.68042,-6.81152 -3.68042,-15.87524 0,-9.11865 3.68042,-15.93018 3.73536,-6.81152 10.38208,-10.6018 6.64673,-3.84522 15.38086,-3.84522 8.844,0 15.43579,3.84522 6.64673,3.79028 10.32715,10.6018 3.73535,6.81153 3.73535,15.93018 0,9.06372 -3.73535,15.87524 -3.68042,6.81153 -10.32715,10.60181 -6.59179,3.79028 -15.43579,3.79028 z m 0,-13.12866 q 3.95508,0 6.92139,-2.03247 2.96631,-2.0874 4.61426,-5.93262 1.64795,-3.84521 1.64795,-9.17358 0,-5.43823 -1.64795,-9.28345 -1.64795,-3.84521 -4.61426,-5.87769 -2.96631,-2.0874 -6.92139,-2.0874 -3.90014,0 -6.86645,2.0874 -2.96631,2.03248 -4.61426,5.87769 -1.64795,3.84522 -1.64795,9.28345 0,5.3833 1.64795,9.22851 1.64795,3.79029 4.61426,5.87769 2.96631,2.03247 6.86645,2.03247 z"
       style="fill:#ffffff;stroke:#6e6e6e;stroke-width:3.5;stroke-linecap:round;stroke-dasharray:none;stroke-opacity:1;paint-order:markers fill stroke"
       id="path20550" /><ellipse
       style="fill:url(#linearGradient6769);fill-opacity:1;stroke:#6e6e6e;stroke-width:3.5;stroke-linecap:round;stroke-linejoin:round;stroke-miterlimit:9.2;stroke-dasharray:none;stroke-opacity:1;paint-order:markers fill stroke"
       id="ellipse20552"
       cx="289.84021"
       cy="217.92111"
       rx="9.2643337"
       ry="8.9566975"
       inkscape:label="path6761" /><path
       style="fill:url(#linearGradient10530);fill-opacity:1;stroke:#6e6e6e;stroke-width:3.5;stroke-linecap:round;stroke-linejoin:round;stroke-miterlimit:9.2;stroke-dasharray:none;stroke-opacity:1;paint-order:markers fill stroke"
       d="m 325.53154,252.62548 c 7.16595,-13.73659 21.50449,-17.422 36.03093,-20.84411 l 0.0132,15.20151 c -6.14202,-0.34368 -12.2071,1.94229 -17.62486,5.67113 -8.67908,5.97349 -15.69697,15.64982 -18.70878,24.15005 z"
       id="path20554"
       sodipodi:nodetypes="cccscc" /></g><g
     aria-label="Gaviko"
     id="text276"
     style="font-weight:bold;font-size:112.5px;font-family:Inter;-inkscape-font-specification:'Inter Bold';opacity:1;fill:#030000;stroke:none;stroke-width:2;stroke-linecap:round;stroke-linejoin:round;stroke-miterlimit:9.2;stroke-dasharray:none;stroke-opacity:1;paint-order:markers fill stroke"
     transform="translate(-70.499998,-203.16152)"><path
       d="m 113.70366,292.24243 q -11.59058,0 -20.37964,-5.27344 -8.73413,-5.27343 -13.677978,-14.77661 -4.888916,-9.50317 -4.888916,-22.13745 0,-13.07373 5.053711,-22.5769 5.053711,-9.50318 13.842773,-14.61182 8.78906,-5.10864 19.77539,-5.10864 7.03125,0 13.23853,2.0874 6.20727,2.03247 10.98632,5.87769 4.83399,3.79028 7.91016,9.06372 3.07617,5.27343 3.84522,11.70044 h -17.13868 q -0.71411,-3.13111 -2.25219,-5.65796 -1.53809,-2.58179 -3.95508,-4.39453 -2.36206,-1.81275 -5.43823,-2.74659 -3.02124,-0.98877 -6.70166,-0.98877 -6.86646,0 -11.86524,3.35083 -4.943846,3.2959 -7.635497,9.44825 -2.636719,6.09741 -2.636719,14.55688 0,8.40454 2.691651,14.50195 2.69165,6.09742 7.690425,9.44825 4.99878,3.2959 11.9751,3.2959 5.71289,0 10.05249,-2.14234 4.3396,-2.19726 6.75659,-6.09741 2.47193,-3.95508 2.47193,-9.11865 l 4.01001,0.32959 h -21.8628 v -12.85401 h 34.38721 v 10.43701 q 0,10.16236 -4.66919,17.90772 -4.61426,7.74536 -12.79907,12.13989 -8.18481,4.3396 -18.78662,4.3396 z"
       style="fill:#ffffff;stroke:none;stroke-width:2;stroke-linecap:round;stroke-dasharray:none;stroke-opacity:1;paint-order:markers fill stroke"
       id="path798" /><path
       d="m 177.53423,291.91284 q -5.76783,0 -10.27222,-1.92261 -4.5044,-1.9226 -7.08618,-5.76782 -2.58179,-3.90014 -2.58179,-9.66797 0,-4.88891 1.81274,-8.12988 1.81275,-3.2959 4.94385,-5.27344 3.18604,-2.03247 7.25098,-3.07617 4.11987,-1.0437 8.62427,-1.42822 5.32836,-0.54932 8.45947,-1.0437 3.1311,-0.49439 4.50439,-1.42823 1.37329,-0.93383 1.37329,-2.80151 v -0.38452 q 0,-2.14233 -1.15356,-3.73535 -1.15356,-1.64795 -3.2959,-2.58179 -2.0874,-0.93384 -5.05371,-0.93384 -2.96631,0 -5.27344,0.93384 -2.25219,0.93384 -3.57055,2.63672 -1.31836,1.70288 -1.53809,3.95508 h -15.21606 q 0.38452,-5.98755 3.51562,-10.38208 3.18604,-4.39453 8.89893,-6.75659 5.71289,-2.417 13.67797,-2.417 5.93262,0 10.60181,1.37329 4.66919,1.31836 7.85523,3.90015 3.24096,2.58179 4.88891,6.26221 1.64795,3.68042 1.64795,8.34961 v 39.33105 h -15.82031 v -8.18481 h -0.21973 q -1.53808,2.85644 -3.79028,4.88891 -2.2522,2.03247 -5.49316,3.18604 -3.24097,1.09863 -7.69043,1.09863 z m 4.50439,-11.26098 q 3.90015,0 6.70166,-1.42823 2.85645,-1.42822 4.39453,-3.90014 1.53809,-2.47193 1.53809,-5.60303 v -5.82275 q -0.71411,0.38452 -1.86768,0.76904 -1.15356,0.32959 -2.69165,0.65918 -1.53808,0.27466 -3.35083,0.60425 -1.81274,0.32959 -3.73535,0.60424 -2.80151,0.43946 -5.05371,1.37329 -2.2522,0.87891 -3.57056,2.417 -1.31836,1.48315 -1.31836,3.79028 0,2.03247 1.09864,3.51563 1.09863,1.48315 3.1311,2.25219 2.03247,0.76905 4.72412,0.76905 z"
       style="fill:#ffffff;stroke:none;stroke-width:2;stroke-linecap:round;stroke-dasharray:none;stroke-opacity:1;paint-order:markers fill stroke"
       id="path800" /><path
       d="m 235.94844,290.92407 -21.47827,-58.00781 h 16.97388 l 9.5581,28.67432 q 1.70288,5.10864 3.18604,10.21728 1.48315,5.10864 2.96631,10.27222 h -3.84522 q 1.42822,-5.16358 2.85645,-10.27222 1.48315,-5.10864 3.07617,-10.21728 l 9.44824,-28.67432 h 16.80908 l -21.5332,58.00781 z"
       style="fill:#ffffff;stroke:none;stroke-width:2;stroke-linecap:round;stroke-dasharray:none;stroke-opacity:1;paint-order:markers fill stroke"
       id="path802" /><path
       style="fill:#ffffff;fill-opacity:1;stroke:none;stroke-width:2;stroke-linecap:round;stroke-dasharray:none;stroke-opacity:1;paint-order:markers fill stroke"
       d="m 281.81636,290.92407 v -58.00781 h 16.20483 v 17.05237 40.95544 z"
       id="path804"
       sodipodi:nodetypes="cccccc" /><path
       style="opacity:1;fill:#ffffff;fill-opacity:1;stroke:none;stroke-width:2;stroke-linecap:round;stroke-dasharray:none;stroke-opacity:1;paint-order:markers fill stroke"
       d="m 347.39607,292.56548 -13.00235,-21.75477 8.66672,-10.72402 20.98052,32.43331 z"
       id="path6775"
       sodipodi:nodetypes="ccccc" /><path
       style="fill:#ffffff;stroke:none;stroke-width:2;stroke-linecap:round;stroke-dasharray:none;stroke-opacity:1;paint-order:markers fill stroke"
       d="m 309.44698,290.92407 v -81.84814 h 16.20483 v 81.84814 z"
       id="path6773" /><path
       d="m 395.74458,292.24243 q -8.73413,0 -15.38086,-3.79028 -6.64672,-3.79028 -10.38208,-10.60181 -3.68042,-6.81152 -3.68042,-15.87524 0,-9.11865 3.68042,-15.93018 3.73536,-6.81152 10.38208,-10.6018 6.64673,-3.84522 15.38086,-3.84522 8.844,0 15.43579,3.84522 6.64673,3.79028 10.32715,10.6018 3.73535,6.81153 3.73535,15.93018 0,9.06372 -3.73535,15.87524 -3.68042,6.81153 -10.32715,10.60181 -6.59179,3.79028 -15.43579,3.79028 z m 0,-13.12866 q 3.95508,0 6.92139,-2.03247 2.96631,-2.0874 4.61426,-5.93262 1.64795,-3.84521 1.64795,-9.17358 0,-5.43823 -1.64795,-9.28345 -1.64795,-3.84521 -4.61426,-5.87769 -2.96631,-2.0874 -6.92139,-2.0874 -3.90014,0 -6.86645,2.0874 -2.96631,2.03248 -4.61426,5.87769 -1.64795,3.84522 -1.64795,9.28345 0,5.3833 1.64795,9.22851 1.64795,3.79029 4.61426,5.87769 2.96631,2.03247 6.86645,2.03247 z"
       style="fill:#ffffff;stroke:none;stroke-width:2;stroke-linecap:round;stroke-dasharray:none;stroke-opacity:1;paint-order:markers fill stroke"
       id="path808" /><ellipse
       style="fill:url(#linearGradient20568);fill-opacity:1;stroke:none;stroke-width:2;stroke-linecap:round;stroke-linejoin:round;stroke-miterlimit:9.2;stroke-dasharray:none;stroke-opacity:1;paint-order:markers fill stroke"
       id="path6761"
       cx="289.84021"
       cy="217.92111"
       rx="9.2643337"
       ry="8.9566975"
       inkscape:label="path6761" /><path
       style="fill:url(#linearGradient20570);fill-opacity:1;stroke:none;stroke-width:2;stroke-linecap:round;stroke-linejoin:round;stroke-miterlimit:9.2;stroke-dasharray:none;stroke-opacity:1;paint-order:markers fill stroke"
       d="m 325.53154,252.62548 c 7.16595,-13.73659 21.50449,-17.422 36.03093,-20.84411 l 0.0132,15.20151 c -6.14202,-0.34368 -12.2071,1.94229 -17.62486,5.67113 -8.67908,5.97349 -15.69697,15.64982 -18.70878,24.15005 z"
       id="path10502"
       sodipodi:nodetypes="cccscc" /></g></svg>
